<?xml version="1.0" encoding="utf-8"?>
<!-- Generator: Adobe Illustrator 18.0.0, SVG Export Plug-In . SVG Version: 6.00 Build 0)  -->
<!DOCTYPE svg PUBLIC "-//W3C//DTD SVG 1.1//EN" "http://www.w3.org/Graphics/SVG/1.1/DTD/svg11.dtd">
<svg version="1.1" xmlns="http://www.w3.org/2000/svg" xmlns:xlink="http://www.w3.org/1999/xlink" x="0px" y="0px"
	 viewBox="0 0 128 128" enable-background="new 0 0 128 128" xml:space="preserve">
<g id="Layer_1" display="none">
	<g id="Layer_1_1_" display="inline">
		<g>
			
				<linearGradient id="SVGID_1_" gradientUnits="userSpaceOnUse" x1="21.7774" y1="52.5132" x2="21.7774" y2="52.5132" gradientTransform="matrix(5.5942 0 0 6.416 -43.1078 -326.5249)">
				<stop  offset="0" style="stop-color:#FFFFFF"/>
				<stop  offset="1" style="stop-color:#000000"/>
			</linearGradient>
			<path fill="url(#SVGID_1_)" d="M78.7,10.4L78.7,10.4z"/>
			<g>
				<path fill="#936855" d="M80.5,19.4c-0.6-1.3-1.6-2.6-2.4-3.7c-2.2-2.9-5.1-5-8.3-6.1c0.3-4.3,3.4-8.3,9.1-8.3
					C90.2,1.3,90.9,17.8,80.5,19.4z"/>
			</g>
		</g>
		<g>
			
				<linearGradient id="SVGID_2_" gradientUnits="userSpaceOnUse" x1="7.9" y1="49.625" x2="7.9" y2="49.625" gradientTransform="matrix(6.4 0 0 6.4 0 -307.2)">
				<stop  offset="0" style="stop-color:#FF7BAC"/>
				<stop  offset="1" style="stop-color:#FF7BAC;stop-opacity:0"/>
			</linearGradient>
			<path fill="url(#SVGID_2_)" d="M50.6,10.4L50.6,10.4z"/>
			<g>
				<path fill="#936855" d="M59.7,9.3c-5,1.4-9.1,5-12,9.9c-9.1-2.6-8.2-17.9,2.9-17.9C56.2,1.3,59.2,5.1,59.7,9.3z"/>
			</g>
		</g>
		<path fill="#936855" stroke="#8C6239" stroke-miterlimit="10" d="M50.6,19.5c-1.1,0-2.1-0.2-2.9-0.3c2.7-5,7-8.6,12-9.9
			C60.2,14.2,57.1,19.5,50.6,19.5z"/>
		<path fill="#936855" stroke="#8C6239" stroke-miterlimit="10" d="M80.5,19.4c-0.5,0.2-1.1,0.2-1.8,0.2c-6.4,0-9.4-5.1-9.1-9.9
			c3.2,1.1,6.1,3.4,8.3,6.1C78.9,17,79.7,18.1,80.5,19.4z"/>
		<image overflow="visible" width="42" height="77" xlink:href="8D8E7286.png"  transform="matrix(1 0 0 1 43 7)">
		</image>
		
			<linearGradient id="SVGID_3_" gradientUnits="userSpaceOnUse" x1="10.1484" y1="54.3275" x2="9.9314" y2="51.7232" gradientTransform="matrix(6.4 0 0 6.4 0 -307.2)">
			<stop  offset="0" style="stop-color:#FF7BAC"/>
			<stop  offset="1" style="stop-color:#FF7BAC;stop-opacity:0"/>
		</linearGradient>
		<path fill="none" stroke="url(#SVGID_3_)" stroke-miterlimit="10" d="M44.8,27.5c14.1,13.4,26.9,12.2,38.4,0"/>
	</g>
	<g id="Layer_2" display="inline">
		<g>
			
				<linearGradient id="SVGID_4_" gradientUnits="userSpaceOnUse" x1="29.8709" y1="110.8732" x2="31.21" y2="110.5525" gradientTransform="matrix(1.6 0 0 -1.6 0 204.8)">
				<stop  offset="0" style="stop-color:#A54B13"/>
				<stop  offset="3.820444e-002" style="stop-color:#AC4F1F;stop-opacity:0.96"/>
				<stop  offset="0.1864" style="stop-color:#C55C4A;stop-opacity:0.8046"/>
				<stop  offset="0.3372" style="stop-color:#DA676D;stop-opacity:0.6466"/>
				<stop  offset="0.4887" style="stop-color:#EA7089;stop-opacity:0.4879"/>
				<stop  offset="0.6412" style="stop-color:#F6769C;stop-opacity:0.328"/>
				<stop  offset="0.7956" style="stop-color:#FD7AA8;stop-opacity:0.1663"/>
				<stop  offset="0.9542" style="stop-color:#FF7BAC;stop-opacity:0"/>
			</linearGradient>
			<path fill="url(#SVGID_4_)" d="M47.2,27.4l0.6,1c-0.3-0.3-0.5-0.5-0.6-0.8c-0.2-0.2-0.3-0.5-0.3-0.6c-0.2-0.2-0.2-0.5-0.2-0.6
				l0.3,0.5l0,0L47.2,27.4z"/>
			<path fill="#F99969" d="M103.2,71.7v2.1c-0.6,0-3.2-0.5-5.1-1.6c-3.8-2.1-8.3-4.2-12.2-6.7c-3.8-2.6-7.7-4.6-12.2-7.2
				c-4-2.2-7.5-4.6-11.4-6.6c0.6-0.6,1-1,1.1-1.1l0,0l0,0l-13-19.2c1,0.5,2.1,0.8,2.9,1.1c3.8,1,7,2.1,10.9,2.1
				c3.2,0.5,7,0.5,9.6-0.5c1.9-0.5,3.8-1,5.8-2.1c0.3-0.3,0.8-0.5,1.3-0.8c1.9,2.4,4,4.6,5.8,7c2.6,3.7,5.1,7.2,7,10.9
				c2.6,3.7,4.5,7.2,5.8,11.4C101.3,64,102.6,68.2,103.2,71.7z"/>
			
				<linearGradient id="SVGID_5_" gradientUnits="userSpaceOnUse" x1="64.4625" y1="93.5686" x2="119.3745" y2="80.418" gradientTransform="matrix(1.6 0 0 -1.6 0 204.8)">
				<stop  offset="0" style="stop-color:#A54B13"/>
				<stop  offset="3.820444e-002" style="stop-color:#AC4F1F;stop-opacity:0.96"/>
				<stop  offset="0.1864" style="stop-color:#C55C4A;stop-opacity:0.8046"/>
				<stop  offset="0.3372" style="stop-color:#DA676D;stop-opacity:0.6466"/>
				<stop  offset="0.4887" style="stop-color:#EA7089;stop-opacity:0.4879"/>
				<stop  offset="0.6412" style="stop-color:#F6769C;stop-opacity:0.328"/>
				<stop  offset="0.7956" style="stop-color:#FD7AA8;stop-opacity:0.1663"/>
				<stop  offset="0.9542" style="stop-color:#FF7BAC;stop-opacity:0"/>
			</linearGradient>
			<path fill="url(#SVGID_5_)" d="M82.7,28c-0.3,0-0.3,0-0.6,0c-0.3,0.8-1,1.4-1.9,2.1c-6.1,4-23.5,3.4-30.6-0.5
				c-0.6-0.3-1.3-0.8-1.8-1.3l1.1,1.9l0.2,0.2c0.5,0.3,1,0.6,1.6,1c1,0.5,2.1,0.8,2.9,1.1c3.8,1,7,2.1,10.9,2.1
				c3.2,0.5,7,0.5,9.6-0.5c1.9-0.5,3.8-1,5.8-2.1c0.3-0.3,0.8-0.5,1.3-0.8c1.9,2.4,4,4.6,5.8,7c2.6,3.7,5.1,7.2,7,10.9
				c2.6,3.7,4.5,7.2,5.8,11.4c1.9,3.7,3.2,7.8,3.8,11.4v2.1c-0.6,0-3.2-0.5-5.1-1.6c-3.8-2.1-8.3-4.2-12.2-6.7
				c-3.8-2.6-7.7-4.6-12.2-7.2c-4-2.2-7.5-4.6-11.4-6.6c0.6-0.6,1-1,1.1-1.1l0,0c-0.2,0-1,0.3-2.2,0.6c-0.2,0-0.2-0.2-0.3-0.2
				l0.2,0.2l0.3,0.6l0.2,0.2l0.2,0.2C132,104.5,106.1,64.5,82.7,28z"/>
			<image overflow="visible" width="64" height="59" xlink:href="8D8E728A.png"  transform="matrix(1 0 0 1 46 20)">
			</image>
		</g>
		<g>
			<image overflow="visible" width="41" height="57" xlink:href="8D8E728D.png"  transform="matrix(1 0 0 1 21 23)">
			</image>
			
				<linearGradient id="SVGID_6_" gradientUnits="userSpaceOnUse" x1="29.1916" y1="112.2299" x2="29.5756" y2="112.2299" gradientTransform="matrix(1.6 0 0 -1.6 0 204.8)">
				<stop  offset="0.3759" style="stop-color:#A54B0B"/>
				<stop  offset="0.4289" style="stop-color:#AE5D23;stop-opacity:0.9151"/>
				<stop  offset="0.641" style="stop-color:#D0A280;stop-opacity:0.5752"/>
				<stop  offset="0.8133" style="stop-color:#E9D4C5;stop-opacity:0.2992"/>
				<stop  offset="0.9369" style="stop-color:#F9F3EF;stop-opacity:0.1011"/>
				<stop  offset="1" style="stop-color:#FFFFFF;stop-opacity:0"/>
			</linearGradient>
			<path fill="url(#SVGID_6_)" d="M46.9,25.4l-0.2-0.3C47,25,47,25,46.9,25.4z"/>
			
				<linearGradient id="SVGID_7_" gradientUnits="userSpaceOnUse" x1="21.7496" y1="97.3572" x2="68.7268" y2="97.3572" gradientTransform="matrix(1.6 0 0 -1.6 0 204.8)">
				<stop  offset="0.3759" style="stop-color:#A54B0B"/>
				<stop  offset="0.4289" style="stop-color:#AE5D23;stop-opacity:0.9151"/>
				<stop  offset="0.641" style="stop-color:#D0A280;stop-opacity:0.5752"/>
				<stop  offset="0.8133" style="stop-color:#E9D4C5;stop-opacity:0.2992"/>
				<stop  offset="0.9369" style="stop-color:#F9F3EF;stop-opacity:0.1011"/>
				<stop  offset="1" style="stop-color:#FFFFFF;stop-opacity:0"/>
			</linearGradient>
			<path fill="url(#SVGID_7_)" d="M61.6,51.2c-0.2,0-0.2-0.2-0.3-0.2l0,0l-0.6,0.5l0,0c-0.3,0.2-0.8,0.3-1.3,0.5
				c-3.2,1.6-7,3.7-12.2,5.8c-4.5,2.6-9.6,5.1-15.2,8.3c-2.6,1.6-5.8,3-8.3,3.7c-0.6,0.5-1.3,0.5-1.3,0.5c-0.6,0-0.6,0-0.6,0
				c-0.6,0-0.6-1.6-0.6-3c0.6-2.6,1.9-5.8,3.2-8.3c1.9-2.6,3.8-5.1,5.8-7.2c1.9-2.6,3.8-4.6,5.8-6.7c1.9-2.1,3.2-4.2,4.5-6.2
				c2.6-4.2,4.5-7.2,6.4-9.8c0.2-0.3,0.2-0.6,0.3-0.8c0,0.2,0.2,0.2,0.3,0.3c0.6,1,1.1,1.4,1.8,1.9l0.2,0.2c0.5,0.3,1,0.6,1.6,1
				l-1.3-2.1l-1.3-1.9l-0.6-1l-0.8-1.1c-3.5,6.7-68.2,82.7,14.4,26.7c0.2-0.2,0.3-0.2,0.5-0.3c0.2-0.2,0.3-0.2,0.5-0.3
				c0.5-0.3,1-0.6,1.4-1l0,0C63.7,50.6,62.7,50.7,61.6,51.2z"/>
			<path fill="#F99969" d="M63.8,50.6L63.8,50.6c-0.2,0-1.1,0.3-2.4,0.8L49,30.2l0.2,0.2c0.5,0.3,1,0.6,1.6,1L63.8,50.6z"/>
			<image overflow="visible" width="47" height="51" xlink:href="8D8E728E.png"  transform="matrix(1 0 0 1 17 24)">
			</image>
		</g>
	</g>
</g>
<g id="Layer_2_1_">
	<ellipse fill="#631000" cx="63" cy="37.1" rx="10" ry="27.8"/>
	<g id="Layer_3">
		<path fill="none" stroke="#050505" stroke-miterlimit="10" d="M72.3,27.3"/>
		<path fill="none" stroke="#050505" stroke-miterlimit="10" d="M72.3,27.3"/>
		<path fill="none" stroke="#050505" stroke-miterlimit="10" d="M53.5,27.3"/>
		<g>
			<path fill="#BA4343" d="M53.5,27.3c-14.9,8.8-17.8,24.8-17.2,38.3C49.9,64.9,58.8,37.6,61.9,24C64,38,80,61.9,90.3,65.7
				c7-24.2-23-43.8-18-38.3"/>
			<path fill="#050505" d="M53.6,27.4l-2.3,1.6c-0.8,0.5-1.4,1.2-2.1,1.7c-0.4,0.3-0.7,0.6-1,0.9l-1,1c-0.7,0.6-1.2,1.4-1.8,2
				c-0.6,0.7-1.1,1.4-1.7,2.2c-0.6,0.7-1,1.5-1.5,2.3c-0.5,0.8-0.9,1.6-1.3,2.4c-0.4,0.8-0.7,1.7-1.1,2.5c-0.4,0.8-0.6,1.7-0.9,2.6
				c-0.3,0.9-0.5,1.8-0.7,2.6c-0.3,0.9-0.4,1.8-0.6,2.7c-0.2,0.9-0.3,1.8-0.4,2.7c-0.1,0.9-0.2,1.8-0.3,2.7
				c-0.1,0.9-0.1,1.8-0.1,2.7c0,0.9,0,1.8-0.1,2.7l0.1,2.8l-0.5-0.4c1-0.1,2-0.3,3-0.6c1-0.3,1.9-0.9,2.8-1.4
				c0.9-0.6,1.7-1.2,2.5-1.9c0.8-0.7,1.5-1.5,2.2-2.3c1.4-1.6,2.6-3.4,3.7-5.2c1.1-1.8,2.1-3.7,3.1-5.6c1.8-3.8,3.4-7.8,4.7-11.9
				c1.3-4.1,2.5-8.2,3.4-12.3l0.2-1.1l0.3,1.1c0.2,1,0.4,2.1,0.7,3.1c0.3,1,0.6,2.1,1,3.1c0.4,1,0.7,2,1.2,3c0.4,1,0.8,2,1.3,2.9
				l1.4,2.9l1.6,2.8c0.5,0.9,1.1,1.8,1.7,2.8c0.5,0.9,1.2,1.8,1.7,2.7c0.6,0.9,1.2,1.8,1.8,2.6c0.6,0.9,1.2,1.7,1.9,2.6
				c0.7,0.8,1.3,1.7,2,2.5c0.7,0.8,1.4,1.7,2.1,2.4c0.8,0.8,1.4,1.6,2.2,2.3c0.8,0.7,1.5,1.5,2.4,2.1l1.2,1c0.4,0.3,0.9,0.6,1.3,0.9
				c0.9,0.6,1.8,1,2.8,1.5l-0.7,0.3c1.1-3.7,1.3-7.7,0.8-11.6c-0.6-3.9-1.9-7.6-3.8-11.1c-1.9-3.5-4.2-6.7-6.9-9.6
				c-1.3-1.5-2.7-2.9-4.2-4.2c-0.7-0.6-1.5-1.3-2.3-1.8c-0.4-0.3-0.8-0.6-1.3-0.8c-0.1,0-0.2-0.1-0.3-0.1c0,0,0,0.2,0.1,0.2
				c0.1,0.2,0.3,0.4,0.4,0.6l-0.1,0.1c-0.2-0.2-0.3-0.4-0.5-0.6c0-0.1-0.1-0.1-0.1-0.2l0-0.1c0,0,0-0.1,0.1-0.1c0.2-0.1,0.3,0,0.4,0
				c0.5,0.2,0.9,0.5,1.3,0.7c0.8,0.5,1.6,1.1,2.4,1.8c1.5,1.3,3,2.6,4.4,4.1c2.7,2.9,5.2,6.1,7.1,9.6c2,3.5,3.4,7.3,4.1,11.3
				c0.3,2,0.5,4,0.3,6c-0.1,2-0.5,4-1,6l-0.2,0.6l-0.5-0.2c-1-0.5-2.1-0.9-3-1.5c-0.5-0.3-0.9-0.6-1.4-0.9l-1.3-1
				c-0.9-0.7-1.6-1.4-2.4-2.2c-0.8-0.7-1.5-1.6-2.3-2.3c-0.8-0.8-1.4-1.6-2.1-2.5c-0.7-0.8-1.4-1.7-2-2.6c-0.7-0.9-1.3-1.7-1.9-2.6
				c-0.6-0.9-1.3-1.8-1.8-2.7c-0.6-0.9-1.2-1.8-1.7-2.8c-0.5-0.9-1.1-1.9-1.6-2.8L67,39.4l-1.4-2.9c-0.5-1-0.8-2-1.3-3
				c-0.4-1-0.7-2-1.1-3.1c-0.4-1-0.6-2.1-0.9-3.1c-0.3-1-0.4-2.1-0.6-3.2l0.5,0c-1,4.2-2.2,8.3-3.6,12.3c-0.7,2-1.4,4-2.2,6
				c-0.8,2-1.6,4-2.5,5.9c-0.5,1-0.9,1.9-1.4,2.9c-0.5,0.9-1,1.9-1.6,2.8c-1.1,1.9-2.3,3.6-3.6,5.3c-0.7,0.8-1.4,1.6-2.2,2.4
				c-0.8,0.8-1.6,1.4-2.5,2.1c-0.9,0.6-1.9,1.2-2.9,1.5c-1,0.4-2.1,0.6-3.2,0.7l-0.4,0l0-0.5l-0.1-2.8c0-0.9,0-1.9,0-2.8
				c0.1-0.9,0.1-1.9,0.2-2.8c0.1-0.9,0.2-1.9,0.3-2.8c0.2-0.9,0.2-1.8,0.5-2.8c0.2-0.9,0.3-1.8,0.6-2.7c0.3-0.9,0.4-1.8,0.8-2.7
				c0.3-0.9,0.6-1.8,1-2.6c0.4-0.9,0.7-1.7,1.2-2.5c0.4-0.8,0.8-1.7,1.4-2.4c0.5-0.8,1-1.6,1.5-2.3c0.6-0.7,1.1-1.5,1.7-2.2
				c0.6-0.7,1.2-1.4,1.9-2l1-0.9c0.3-0.3,0.7-0.6,1.1-0.9c0.7-0.6,1.5-1.2,2.2-1.7L53.6,27.4L53.6,27.4z"/>
		</g>
		<ellipse fill="#1A0A00" cx="87.7" cy="59.8" rx="2.2" ry="2.1"/>
		<ellipse fill="#1A0A00" cx="40.7" cy="57.1" rx="2.2" ry="2.1"/>
		<ellipse fill="#1A0A00" cx="76.1" cy="48.7" rx="2.2" ry="2.1"/>
		<ellipse fill="#1A0A00" cx="81.7" cy="44.9" rx="2.2" ry="2.1"/>
		<ellipse fill="#1A0A00" cx="73" cy="39.2" rx="2.2" ry="2.1"/>
		<ellipse fill="#1A0A00" cx="69.1" cy="32.3" rx="2.2" ry="2.1"/>
		<ellipse fill="#1A0A00" cx="48.3" cy="53.9" rx="2.2" ry="2.1"/>
		<ellipse fill="#1A0A00" cx="53" cy="34.4" rx="2.2" ry="2.1"/>
		<ellipse fill="#1A0A00" cx="52.7" cy="43.3" rx="2.2" ry="2.1"/>
		<ellipse fill="#1A0A00" cx="42.2" cy="45.4" rx="2.2" ry="2.1"/>
		<ellipse fill="#1A0A00" cx="83.9" cy="53.9" rx="2.2" ry="2.1"/>
		<ellipse fill="#631000" cx="67.2" cy="12.7" rx="3.2" ry="3.4"/>
		<ellipse fill="#631000" cx="58.4" cy="12.7" rx="3.2" ry="3.4"/>
		<ellipse fill="#1A0A00" cx="81" cy="36.7" rx="1.7" ry="1.6"/>
		<line fill="none" stroke="#050505" stroke-miterlimit="10" x1="63.8" y1="10" x2="66.9" y2="3.9"/>
		<line fill="#631000" stroke="#050505" stroke-miterlimit="10" x1="62.1" y1="10" x2="59.2" y2="3.9"/>
	</g>
</g>
<g id="dots">
	<ellipse fill="#1A0A00" cx="47.7" cy="40.3" rx="2.2" ry="2.1"/>
</g>
</svg>
