<?xml version="1.0" encoding="utf-8"?>
<!-- Generator: Adobe Illustrator 18.0.0, SVG Export Plug-In . SVG Version: 6.00 Build 0)  -->
<!DOCTYPE svg PUBLIC "-//W3C//DTD SVG 1.1//EN" "http://www.w3.org/Graphics/SVG/1.1/DTD/svg11.dtd">
<svg version="1.1" id="Layer_1" xmlns="http://www.w3.org/2000/svg" xmlns:xlink="http://www.w3.org/1999/xlink" x="0px" y="0px"
	 viewBox="0 0 80 80" enable-background="new 0 0 80 80" xml:space="preserve">
<g id="Layer_1_1_">
	<g>
		
			<linearGradient id="SVGID_1_" gradientUnits="userSpaceOnUse" x1="21.7774" y1="75.4826" x2="21.7774" y2="75.4826" gradientTransform="matrix(3.4964 0 0 -4.01 -26.9424 309.202)">
			<stop  offset="0" style="stop-color:#FFFFFF"/>
			<stop  offset="1" style="stop-color:#000000"/>
		</linearGradient>
		<path fill="url(#SVGID_1_)" d="M49.2,6.5L49.2,6.5z"/>
		<g>
			<path fill="#936855" d="M50.3,12.1c-0.4-0.8-1-1.6-1.5-2.3c-1.4-1.8-3.2-3.1-5.2-3.8c0.2-2.7,2.1-5.2,5.7-5.2
				C56.4,0.8,56.8,11.1,50.3,12.1z"/>
		</g>
	</g>
	<g>
		
			<linearGradient id="SVGID_2_" gradientUnits="userSpaceOnUse" x1="7.9" y1="78.3708" x2="7.9" y2="78.3708" gradientTransform="matrix(4 0 0 -4 0 320)">
			<stop  offset="0" style="stop-color:#FF7BAC"/>
			<stop  offset="1" style="stop-color:#FF7BAC;stop-opacity:0"/>
		</linearGradient>
		<path fill="url(#SVGID_2_)" d="M31.6,6.5L31.6,6.5z"/>
		<g>
			<path fill="#936855" d="M37.3,5.8c-3.1,0.9-5.7,3.1-7.5,6.2c-5.7-1.6-5.1-11.2,1.8-11.2C35.1,0.8,37,3.2,37.3,5.8z"/>
		</g>
	</g>
	<path fill="#936855" stroke="#8C6239" stroke-miterlimit="10" d="M31.6,12.2c-0.7,0-1.3-0.1-1.8-0.2c1.7-3.1,4.4-5.4,7.5-6.2
		C37.6,8.9,35.7,12.2,31.6,12.2z"/>
	<path fill="#936855" stroke="#8C6239" stroke-miterlimit="10" d="M50.3,12.1c-0.3,0.1-0.7,0.1-1.1,0.1c-4,0-5.9-3.2-5.7-6.2
		c2,0.7,3.8,2.1,5.2,3.8C49.3,10.6,49.8,11.3,50.3,12.1z"/>
	<path fill="none" stroke="#8C6239" stroke-miterlimit="10" d="M52.4,20.6c0,0-5.6,31.6-12.4,31.6S27.6,20.6,27.6,20.6
		c0-3.2,0.8-6.2,2.2-8.6c0.5,0.2,1.1,0.2,1.8,0.2c4.1,0,6-3.4,5.7-6.5c0.9-0.3,1.8-0.4,2.8-0.4c1.2,0,2.4,0.2,3.5,0.6
		c-0.2,3,1.7,6.2,5.7,6.2c0.4,0,0.8,0,1.1-0.1C51.6,14.6,52.4,17.5,52.4,20.6z"/>
	
		<linearGradient id="SVGID_3_" gradientUnits="userSpaceOnUse" x1="10.1491" y1="73.6726" x2="9.9321" y2="76.2769" gradientTransform="matrix(4 0 0 -4 0 320)">
		<stop  offset="0" style="stop-color:#FF7BAC"/>
		<stop  offset="1" style="stop-color:#FF7BAC;stop-opacity:0"/>
	</linearGradient>
	<path fill="none" stroke="url(#SVGID_3_)" stroke-miterlimit="10" d="M28,17.2c8.8,8.4,16.8,7.6,24,0"/>
</g>
<g id="Layer_2">
	<g>
		<linearGradient id="SVGID_4_" gradientUnits="userSpaceOnUse" x1="29.8766" y1="17.1029" x2="31.2157" y2="17.4236">
			<stop  offset="0" style="stop-color:#A54B13"/>
			<stop  offset="3.820444e-002" style="stop-color:#AC4F1F;stop-opacity:0.96"/>
			<stop  offset="0.1864" style="stop-color:#C55C4A;stop-opacity:0.8046"/>
			<stop  offset="0.3372" style="stop-color:#DA676D;stop-opacity:0.6466"/>
			<stop  offset="0.4887" style="stop-color:#EA7089;stop-opacity:0.4879"/>
			<stop  offset="0.6412" style="stop-color:#F6769C;stop-opacity:0.328"/>
			<stop  offset="0.7956" style="stop-color:#FD7AA8;stop-opacity:0.1663"/>
			<stop  offset="0.9542" style="stop-color:#FF7BAC;stop-opacity:0"/>
		</linearGradient>
		<path fill="url(#SVGID_4_)" d="M29.5,17.1l0.4,0.6c-0.2-0.2-0.3-0.3-0.4-0.5c-0.1-0.1-0.2-0.3-0.2-0.4c-0.1-0.1-0.1-0.3-0.1-0.4
			l0.2,0.3c0,0,0,0,0,0L29.5,17.1z"/>
		<path fill="#F99969" d="M64.5,44.8v1.3c-0.4,0-2-0.3-3.2-1c-2.4-1.3-5.2-2.6-7.6-4.2c-2.4-1.6-4.8-2.9-7.6-4.5
			c-2.5-1.4-4.7-2.9-7.1-4.1c0.4-0.4,0.6-0.6,0.7-0.7l0,0c0,0,0,0,0,0l-8.1-12c0.6,0.3,1.3,0.5,1.8,0.7c2.4,0.6,4.4,1.3,6.8,1.3
			c2,0.3,4.4,0.3,6-0.3c1.2-0.3,2.4-0.6,3.6-1.3c0.2-0.2,0.5-0.3,0.8-0.5c1.2,1.5,2.5,2.9,3.6,4.4c1.6,2.3,3.2,4.5,4.4,6.8
			c1.6,2.3,2.8,4.5,3.6,7.1C63.3,40,64.1,42.6,64.5,44.8z"/>
		<linearGradient id="SVGID_5_" gradientUnits="userSpaceOnUse" x1="64.4687" y1="34.4056" x2="119.3807" y2="47.5562">
			<stop  offset="0" style="stop-color:#A54B13"/>
			<stop  offset="3.820444e-002" style="stop-color:#AC4F1F;stop-opacity:0.96"/>
			<stop  offset="0.1864" style="stop-color:#C55C4A;stop-opacity:0.8046"/>
			<stop  offset="0.3372" style="stop-color:#DA676D;stop-opacity:0.6466"/>
			<stop  offset="0.4887" style="stop-color:#EA7089;stop-opacity:0.4879"/>
			<stop  offset="0.6412" style="stop-color:#F6769C;stop-opacity:0.328"/>
			<stop  offset="0.7956" style="stop-color:#FD7AA8;stop-opacity:0.1663"/>
			<stop  offset="0.9542" style="stop-color:#FF7BAC;stop-opacity:0"/>
		</linearGradient>
		<path fill="url(#SVGID_5_)" d="M51.7,17.5c-0.2,0-0.2,0-0.4,0c-0.2,0.5-0.6,0.9-1.2,1.3c-3.8,2.5-14.7,2.1-19.1-0.3
			c-0.4-0.2-0.8-0.5-1.1-0.8l0.7,1.2c0,0,0.1,0.1,0.1,0.1c0.3,0.2,0.6,0.4,1,0.6c0.6,0.3,1.3,0.5,1.8,0.7c2.4,0.6,4.4,1.3,6.8,1.3
			c2,0.3,4.4,0.3,6-0.3c1.2-0.3,2.4-0.6,3.6-1.3c0.2-0.2,0.5-0.3,0.8-0.5c1.2,1.5,2.5,2.9,3.6,4.4c1.6,2.3,3.2,4.5,4.4,6.8
			c1.6,2.3,2.8,4.5,3.6,7.1c1.2,2.3,2,4.9,2.4,7.1v1.3c-0.4,0-2-0.3-3.2-1c-2.4-1.3-5.2-2.6-7.6-4.2c-2.4-1.6-4.8-2.9-7.6-4.5
			c-2.5-1.4-4.7-2.9-7.1-4.1c0.4-0.4,0.6-0.6,0.7-0.7l0,0c-0.1,0-0.6,0.2-1.4,0.4c-0.1,0-0.1-0.1-0.2-0.1l0.1,0.1l0.2,0.4l0.1,0.1
			c0,0,0.1,0.1,0.1,0.1C82.5,65.3,66.3,40.3,51.7,17.5z"/>
		<linearGradient id="SVGID_6_" gradientUnits="userSpaceOnUse" x1="26.6796" y1="30.046" x2="69.5476" y2="31.4802">
			<stop  offset="0" style="stop-color:#FF7BAC"/>
			<stop  offset="1" style="stop-color:#FF7BAC;stop-opacity:0"/>
		</linearGradient>
		<path fill="url(#SVGID_6_)" d="M68.5,47.1c0,0.6-0.4,1.3-1.2,1.6c-0.8,0.6-1.6,0.6-2.4,0.6c-2.8,0-4-0.6-5.6-1.3
			c-3.2-1.3-5.6-2.9-8-4.5C49,41.9,46.6,40,44.2,38c-2.1-1.7-3.9-3.5-5.7-5.2c-0.1-0.1-0.1-0.1-0.2-0.2c-0.1-0.1-0.3-0.3-0.4-0.4
			l0,0l0.4-0.3c0,0,0,0,0,0c0.1,0,0.1,0.1,0.2,0.1c0.1,0.1,0.3,0.1,0.4,0.2c0.1,0,0.1,0.1,0.2,0.1c2.4,1.2,4.6,2.7,7.1,4.1
			c2.8,1.6,5.2,2.9,7.6,4.5c2.4,1.6,5.2,2.9,7.6,4.2c1.2,0.6,2.8,1,3.2,1v-1.3c-0.4-2.3-1.2-4.9-2.4-7.1c-0.8-2.6-2-4.9-3.6-7.1
			c-1.2-2.3-2.8-4.5-4.4-6.8c-1.1-1.6-2.4-3-3.6-4.4c-0.3,0.2-0.6,0.4-0.8,0.5c-1.2,0.6-2.4,1-3.6,1.3c-1.6,0.6-4,0.6-6,0.3
			c-2.4,0-4.4-0.6-6.8-1.3c-0.5-0.2-1.2-0.4-1.8-0.7c-0.4-0.2-0.7-0.4-1-0.6c0,0-0.1-0.1-0.1-0.1c-0.4-0.3-0.7-0.6-1.1-1.2
			c-0.1-0.1-0.1-0.1-0.2-0.2c-0.1-0.2-0.2-0.4-0.1-0.7c0,0,0-0.1,0-0.1v0c0-0.1,0.1-0.2,0.2-0.3c0,0.1,0.1,0.2,0.2,0.3
			c0.1,0.2,0.3,0.4,0.5,0.5c0.4,0.3,0.9,0.5,1.4,0.7c0.8,0.3,1.6,0.6,2.8,0.6c2,0.3,4,0.3,6,0.3s4-0.3,6-0.6c0.8-0.3,1.6-0.6,2.4-1
			c0.8-0.3,0.8-0.6,0.8-1l1.6-3.6l1.6,3.2c1.2,2.3,2.4,4.9,3.6,7.1c1.2,2.3,2.8,4.9,4,7.1l4.8,6.8c1.6,2.3,2.8,4.5,3.6,7.4
			C68.5,45.2,68.9,46.1,68.5,47.1z"/>
	</g>
	<g>
		<path fill="#F99969" d="M38.3,31.9l-0.4,0.3l0,0c-0.2,0.1-0.5,0.2-0.8,0.3c-2,1-4.4,2.3-7.6,3.6c-2.8,1.6-6,3.2-9.5,5.2
			c-1.6,1-3.6,1.9-5.2,2.3c-0.4,0.3-0.8,0.3-0.8,0.3c-0.4,0-0.4,0-0.4,0c-0.4,0-0.4-1-0.4-1.9c0.4-1.6,1.2-3.6,2-5.2
			c1.2-1.6,2.4-3.2,3.6-4.5c1.2-1.6,2.4-2.9,3.6-4.2c1.2-1.3,2-2.6,2.8-3.9c1.6-2.6,2.8-4.5,4-6.1c0.1-0.2,0.1-0.4,0.2-0.5
			c0,0.1,0.1,0.1,0.2,0.2c0.4,0.6,0.7,0.9,1.1,1.2L38.3,31.9C38.3,31.9,38.3,31.9,38.3,31.9z"/>
		<linearGradient id="SVGID_7_" gradientUnits="userSpaceOnUse" x1="29.1916" y1="15.773" x2="29.5756" y2="15.773">
			<stop  offset="0.3759" style="stop-color:#A54B0B"/>
			<stop  offset="0.4289" style="stop-color:#AE5D23;stop-opacity:0.9151"/>
			<stop  offset="0.641" style="stop-color:#D0A280;stop-opacity:0.5752"/>
			<stop  offset="0.8133" style="stop-color:#E9D4C5;stop-opacity:0.2992"/>
			<stop  offset="0.9369" style="stop-color:#F9F3EF;stop-opacity:0.1011"/>
			<stop  offset="1" style="stop-color:#FFFFFF;stop-opacity:0"/>
		</linearGradient>
		<path fill="url(#SVGID_7_)" d="M29.3,15.9l-0.1-0.2C29.4,15.6,29.4,15.6,29.3,15.9z"/>
		<linearGradient id="SVGID_8_" gradientUnits="userSpaceOnUse" x1="21.7496" y1="30.6557" x2="68.7268" y2="30.6557">
			<stop  offset="0.3759" style="stop-color:#A54B0B"/>
			<stop  offset="0.4289" style="stop-color:#AE5D23;stop-opacity:0.9151"/>
			<stop  offset="0.641" style="stop-color:#D0A280;stop-opacity:0.5752"/>
			<stop  offset="0.8133" style="stop-color:#E9D4C5;stop-opacity:0.2992"/>
			<stop  offset="0.9369" style="stop-color:#F9F3EF;stop-opacity:0.1011"/>
			<stop  offset="1" style="stop-color:#FFFFFF;stop-opacity:0"/>
		</linearGradient>
		<path fill="url(#SVGID_8_)" d="M38.5,32c-0.1,0-0.1-0.1-0.2-0.1c0,0,0,0,0,0l-0.4,0.3l0,0c-0.2,0.1-0.5,0.2-0.8,0.3
			c-2,1-4.4,2.3-7.6,3.6c-2.8,1.6-6,3.2-9.5,5.2c-1.6,1-3.6,1.9-5.2,2.3c-0.4,0.3-0.8,0.3-0.8,0.3c-0.4,0-0.4,0-0.4,0
			c-0.4,0-0.4-1-0.4-1.9c0.4-1.6,1.2-3.6,2-5.2c1.2-1.6,2.4-3.2,3.6-4.5c1.2-1.6,2.4-2.9,3.6-4.2c1.2-1.3,2-2.6,2.8-3.9
			c1.6-2.6,2.8-4.5,4-6.1c0.1-0.2,0.1-0.4,0.2-0.5c0,0.1,0.1,0.1,0.2,0.2c0.4,0.6,0.7,0.9,1.1,1.2c0,0,0.1,0.1,0.1,0.1
			c0.3,0.2,0.6,0.4,1,0.6L31,18.4l-0.8-1.2l-0.4-0.6l-0.5-0.7c-2.2,4.2-42.6,51.7,9,16.7c0.1-0.1,0.2-0.1,0.3-0.2
			c0.1-0.1,0.2-0.1,0.3-0.2c0.3-0.2,0.6-0.4,0.9-0.6l0,0C39.8,31.6,39.2,31.7,38.5,32z"/>
		<path fill="#F99969" d="M39.9,31.6C39.9,31.6,39.9,31.6,39.9,31.6c-0.1,0-0.7,0.2-1.5,0.5l-7.8-13.2c0,0,0.1,0.1,0.1,0.1
			c0.3,0.2,0.6,0.4,1,0.6L39.9,31.6z"/>
		<linearGradient id="SVGID_9_" gradientUnits="userSpaceOnUse" x1="10.14" y1="30.9976" x2="41.1043" y2="30.9976">
			<stop  offset="0" style="stop-color:#FF7BAC"/>
			<stop  offset="1" style="stop-color:#FF7BAC;stop-opacity:0"/>
		</linearGradient>
		<path fill="url(#SVGID_9_)" d="M39.8,31.6L39.8,31.6c-0.1,0.1-0.3,0.4-0.7,0.7c-0.1,0.1-0.2,0.2-0.3,0.3c-0.1,0.1-0.1,0.2-0.2,0.2
			c-0.2,0.2-0.4,0.4-0.7,0.7c-1.3,1.2-3.3,2.9-5.9,4.9c-2.8,1.9-5.6,3.9-9.5,5.8c-2,1-4,1.9-6.8,2.3c-0.8,0-1.6,0.3-2.4,0
			c-0.8,0-2-1-2.4-1.6c-0.4-1.6,0-2.6,0.4-3.6c0.8-1.6,2-3.2,3.2-4.9c0.9-1.8,1.8-3.6,2.7-5.9c0.9-1.5,2.2-3.8,3.1-5.3
			c0.7-0.9,1.4-1.7,2.2-2.4c2-2.3,3.6-4.2,4.8-5.5c0.8-0.6,1.2-1.3,1.6-1.6c0.4,0,0-0.3,0.4-0.3c0.8,0,0.4,0.3,0.8,0.3V16
			c0,0.1-0.1,0.3-0.2,0.6c0,0,0,0,0,0.1c0,0.1-0.1,0.2-0.2,0.4c0,0,0,0.1-0.1,0.1c0,0.1-0.1,0.2-0.1,0.3c-0.1,0.2-0.1,0.3-0.2,0.5
			c-1.2,1.6-2.4,3.6-4,6.1c-0.8,1.3-1.6,2.6-2.8,3.9c-1.2,1.3-2.4,2.6-3.6,4.2c-1.2,1.3-2.4,2.9-3.6,4.5c-0.8,1.6-1.6,3.6-2,5.2
			c0,1,0,1.9,0.4,1.9c0,0,0,0,0.4,0c0,0,0.4,0,0.8-0.3c1.6-0.3,3.6-1.3,5.2-2.3c3.6-1.9,6.8-3.6,9.5-5.2c3.2-1.3,5.6-2.6,7.6-3.6
			c0.3-0.1,0.6-0.2,0.8-0.3c0.2-0.1,0.3-0.1,0.5-0.2c0,0,0.1,0,0.1,0C39.2,31.7,39.8,31.6,39.8,31.6z"/>
	</g>
</g>
</svg>
